<svg width="36" height="54" viewBox="0 0 36 44" fill="none" xmlns="http://www.w3.org/2000/svg">
<style>
	#boo__front,
	#boo__face { animation: boo-idle 2s infinite; }
	#boo__back { animation: boo-idle 2s .1s infinite; }
	#boo__eyes { animation: boo-blink 10s infinite; }

	@keyframes boo-blink {
		98% { opacity: 1; }
		98.01% { opacity: 0; }
		99.99% { opacity: 0; }
		100% { opacity: 1; }
	}

	@keyframes boo-idle {
		0% { transform: translate(0, 0); }
		50% { transform: translate(0, 5px); }
		100% { transform: translate(0, 0); }
	}
	</style>
<g id="Boo=Default">
<g id="boo__body">
<path id="boo__back" opacity="0.54" d="M3.42746 19.5796C3.42746 24.3628 5.66188 31.9129 6.7806 34.9539C7.89933 37.9949 8.23041 39.3557 9.19099 39.3557C10.1516 39.3557 10.3117 35.3489 11.7525 35.2579C13.1934 35.1668 13.491 41.044 14.4742 41.1975C16.2264 41.4711 15.2915 38.2659 16.4754 38.6272C18.0783 39.1163 17.7953 43.9999 19.197 43.9999C20.5987 43.9999 19.5261 37.6255 21.2783 37.6255C23.0305 37.6255 23.203 41.1975 24.6047 41.1975C26.0065 41.1975 27.241 33.2906 28.6428 32.8902C30.0445 32.4899 30.2117 38.7642 31.6134 34.9539C33.3656 30.191 34.9666 24.3628 34.9666 19.5796C35.0248 8.09177 27.9247 1.5647 19.197 1.5647C10.4694 1.5647 3.26428 7.77832 3.42746 19.5796Z" fill="#EAF4FD"/>
<path id="boo__front" d="M35.9969 18.0149C35.9969 22.7981 33.4467 30.3482 32.1699 33.3892C30.893 36.4302 30.5151 37.791 29.4188 37.791C28.3225 37.791 28.1397 33.7842 26.4952 33.6932C24.8507 33.6021 24.5111 39.4793 23.3889 39.6328C21.3891 39.9064 22.4561 36.7012 21.1049 37.0625C19.2755 37.5516 19.5985 42.4352 17.9987 42.4352C16.3988 42.4352 17.623 36.0608 15.6232 36.0608C13.6234 36.0608 13.4265 39.6328 11.8267 39.6328C10.2268 39.6328 8.81777 31.7259 7.21793 31.3255C5.61808 30.9252 5.42729 37.1995 3.82744 33.3892C1.82764 28.6263 0.000405956 22.7981 0.000405956 18.0149C-0.0660591 6.52707 8.03753 4.77084e-07 17.9987 0C27.9598 -4.77084e-07 36.1831 6.21362 35.9969 18.0149Z" fill="#EAF4FD"/>
</g>
<g id="boo__face">
<g id="boo__eyes">
<g id="boo__eye">
<path id="boo__eye_2" d="M30.0272 13.1618C30.0272 15.8038 27.8783 16.9412 25.2276 16.9412C22.5769 16.9412 20.4281 15.8038 20.4281 13.1618C20.4281 10.5197 22.5769 8.37793 25.2276 8.37793C27.8783 8.37793 30.0272 10.5197 30.0272 13.1618Z" fill="#050E18"/>
<ellipse id="Ellipse 33" cx="0.472752" cy="0.473135" rx="0.472752" ry="0.473135" transform="matrix(0.608849 0.793286 0.795209 -0.606335 26.1046 10.7317)" fill="#EAF4FD"/>
<ellipse id="Ellipse 34" cx="1.16936" cy="1.17031" rx="1.16936" ry="1.17031" transform="matrix(0.608849 0.793286 0.795209 -0.606335 22.8401 10.5066)" fill="#EAF4FD"/>
</g>
<g id="boo__eye_3">
<path id="boo__eye_4" d="M15.6289 13.1618C15.6289 15.8038 13.4801 16.9412 10.8294 16.9412C8.17867 16.9412 6.02985 15.8038 6.02985 13.1618C6.02985 10.5197 8.17867 8.37793 10.8294 8.37793C13.4801 8.37793 15.6289 10.5197 15.6289 13.1618Z" fill="#050E18"/>
<ellipse id="Ellipse 33_2" cx="0.472752" cy="0.473135" rx="0.472752" ry="0.473135" transform="matrix(0.608849 0.793286 0.795209 -0.606335 11.6704 10.8462)" fill="#EAF4FD"/>
<ellipse id="Ellipse 34_2" cx="1.16936" cy="1.17031" rx="1.16936" ry="1.17031" transform="matrix(0.608849 0.793286 0.795209 -0.606335 8.40442 10.6211)" fill="#EAF4FD"/>
</g>
</g>
<path id="boo__mouth" d="M19.9168 17.269C20.7403 17.4579 19.54 19.3377 18.0895 19.3053C16.6391 19.2728 15.3847 17.4219 16.2623 17.269C17.1399 17.1161 17.0804 18.2429 18.0895 18.2429C19.0987 18.2429 19.0932 17.0802 19.9168 17.269Z" fill="#050E18"/>
</g>
</g>
</svg>
