<svg width="197" height="46" viewBox="0 0 197 46" fill="none" xmlns="http://www.w3.org/2000/svg">
	<path opacity="0.54" d="M3.42929 20.6751C3.42929 25.4582 5.66371 33.0083 6.78243 36.0493C7.90116 39.0903 8.23224 40.4511 9.19283 40.4511C10.1534 40.4511 10.3135 36.4444 11.7544 36.3533C13.1953 36.2622 13.4928 42.1395 14.476 42.293C16.2282 42.5666 15.2934 39.3614 16.4772 39.7226C18.0801 40.2118 17.7971 45.0953 19.1988 45.0953C20.6006 45.0953 19.528 38.7209 21.2801 38.7209C23.0323 38.7209 23.2048 42.293 24.6066 42.293C26.0083 42.293 27.2429 34.386 28.6446 33.9857C30.0463 33.5854 30.2135 39.8597 31.6153 36.0493C33.3674 31.2864 34.9684 25.4582 34.9684 20.6751C35.0266 9.18723 27.9265 2.66016 19.1988 2.66016C10.4712 2.66016 3.26612 8.87378 3.42929 20.6751Z" fill="#A5AFB8"/>
	<path d="M35.9969 19.1106C35.9969 23.8938 33.4467 31.4439 32.1699 34.4849C30.893 37.5259 30.5151 38.8867 29.4188 38.8867C28.3225 38.8867 28.1397 34.8799 26.4952 34.7889C24.8507 34.6978 24.5111 40.575 23.3889 40.7285C21.3891 41.0021 22.4561 37.7969 21.1049 38.1582C19.2755 38.6473 19.5985 43.5309 17.9987 43.5309C16.3988 43.5309 17.623 37.1565 15.6232 37.1565C13.6234 37.1565 13.4265 40.7285 11.8267 40.7285C10.2268 40.7285 8.81777 32.8216 7.21793 32.4212C5.61808 32.0209 5.42729 38.2952 3.82744 34.4849C1.82764 29.722 0.000405956 23.8938 0.000405956 19.1106C-0.0660591 7.62277 8.03753 1.0957 17.9987 1.0957C27.9598 1.0957 36.1831 7.30933 35.9969 19.1106Z" fill="#EAF4FD"/>
	<path d="M30.0287 14.2565C30.0287 16.8985 27.8799 18.0359 25.2292 18.0359C22.5785 18.0359 20.4297 16.8985 20.4297 14.2565C20.4297 11.6144 22.5785 9.47266 25.2292 9.47266C27.8799 9.47266 30.0287 11.6144 30.0287 14.2565Z" fill="#050E18"/>
	<ellipse cx="0.472752" cy="0.473135" rx="0.472752" ry="0.473135" transform="matrix(0.608849 0.793286 0.795209 -0.606335 26.1055 11.8262)" fill="#EAF4FD"/>
	<ellipse cx="1.16936" cy="1.17031" rx="1.16936" ry="1.17031" transform="matrix(0.608849 0.793286 0.795209 -0.606335 22.8398 11.6016)" fill="#EAF4FD"/>
	<path d="M15.6303 14.2565C15.6303 16.8985 13.4815 18.0359 10.8308 18.0359C8.18007 18.0359 6.03125 16.8985 6.03125 14.2565C6.03125 11.6144 8.18007 9.47266 10.8308 9.47266C13.4815 9.47266 15.6303 11.6144 15.6303 14.2565Z" fill="#050E18"/>
	<ellipse cx="0.472752" cy="0.473135" rx="0.472752" ry="0.473135" transform="matrix(0.608849 0.793286 0.795209 -0.606335 11.6719 11.9414)" fill="#EAF4FD"/>
	<ellipse cx="1.16936" cy="1.17031" rx="1.16936" ry="1.17031" transform="matrix(0.608849 0.793286 0.795209 -0.606335 8.40625 11.7168)" fill="#EAF4FD"/>
	<path d="M19.9179 18.3645C20.7414 18.5533 19.5411 20.4332 18.0906 20.4007C16.6402 20.3683 15.3858 18.5174 16.2634 18.3645C17.141 18.2116 17.0815 19.3384 18.0906 19.3384C19.0998 19.3384 19.0943 18.1756 19.9179 18.3645Z" fill="#050E18"/>
	<path d="M52.6784 31.26C51.24 31.26 49.9497 31.0153 48.8075 30.5258C47.6652 30.0159 46.7557 29.3327 46.0788 28.4761C45.4231 27.6195 45.0635 26.6711 45 25.631H49.4738C49.5584 26.2836 49.8863 26.8241 50.4574 27.2524C51.0496 27.6807 51.7794 27.8948 52.6467 27.8948C53.4928 27.8948 54.1485 27.7317 54.6139 27.4054C55.1004 27.079 55.3436 26.6609 55.3436 26.1511C55.3436 25.6004 55.0475 25.1925 54.4552 24.9273C53.8841 24.6418 52.964 24.3359 51.6948 24.0096C50.3833 23.7036 49.3046 23.3875 48.4584 23.0612C47.6335 22.7349 46.9143 22.2352 46.3009 21.5621C45.7086 20.8891 45.4125 19.9815 45.4125 18.8394C45.4125 17.9012 45.6875 17.0446 46.2374 16.2696C46.8085 15.4946 47.6123 14.8827 48.6488 14.434C49.7065 13.9853 50.9439 13.761 52.3611 13.761C54.4552 13.761 56.1263 14.2709 57.3743 15.2906C58.6223 16.29 59.3097 17.6463 59.4366 19.3595H55.185C55.1215 18.6864 54.8254 18.1562 54.2966 17.7686C53.7889 17.3607 53.1014 17.1568 52.2342 17.1568C51.4304 17.1568 50.8064 17.2996 50.3622 17.5851C49.9391 17.8706 49.7276 18.2683 49.7276 18.7782C49.7276 19.3493 50.0237 19.7878 50.616 20.0937C51.2083 20.3792 52.1284 20.675 53.3764 20.9809C54.6456 21.2868 55.6926 21.6029 56.5176 21.9293C57.3425 22.2556 58.0512 22.7655 58.6434 23.4589C59.2569 24.1319 59.5741 25.0293 59.5953 26.1511C59.5953 27.13 59.3097 28.007 58.7386 28.782C58.1886 29.557 57.3848 30.1689 56.3272 30.6176C55.2907 31.0459 54.0745 31.26 52.6784 31.26Z" fill="#EAF4FD"/>
	<path d="M67.6837 16.5143C68.2548 15.6985 69.0374 15.0357 70.0316 14.5258C71.0469 14.0159 72.1998 13.761 73.4901 13.761C74.9919 13.761 76.3457 14.1179 77.5514 14.8317C78.7782 15.5456 79.7407 16.5653 80.4387 17.891C81.1579 19.1963 81.5175 20.7157 81.5175 22.4493C81.5175 24.1829 81.1579 25.7228 80.4387 27.0688C79.7407 28.3945 78.7782 29.4245 77.5514 30.1587C76.3457 30.8929 74.9919 31.26 73.4901 31.26C72.1786 31.26 71.0258 31.0153 70.0316 30.5258C69.0586 30.0159 68.276 29.3633 67.6837 28.5679V30.9847H63.2416V8.34608H67.6837V16.5143ZM76.9802 22.4493C76.9802 21.4296 76.7581 20.5526 76.3139 19.8184C75.8909 19.0637 75.3198 18.4927 74.6006 18.1052C73.9025 17.7177 73.1411 17.5239 72.3161 17.5239C71.5123 17.5239 70.7508 17.7279 70.0316 18.1358C69.3336 18.5233 68.7625 19.0943 68.3183 19.8489C67.8952 20.6036 67.6837 21.4908 67.6837 22.5105C67.6837 23.5303 67.8952 24.4175 68.3183 25.1721C68.7625 25.9267 69.3336 26.508 70.0316 26.9159C70.7508 27.3034 71.5123 27.4971 72.3161 27.4971C73.1411 27.4971 73.9025 27.2932 74.6006 26.8853C75.3198 26.4774 75.8909 25.8961 76.3139 25.1415C76.7581 24.3869 76.9802 23.4895 76.9802 22.4493Z" fill="#3090EE"/>
	<path d="M92.5507 31.26C90.8585 31.26 89.3355 30.9031 87.9818 30.1893C86.628 29.4551 85.5598 28.4251 84.7771 27.0994C84.0156 25.7737 83.6349 24.2441 83.6349 22.5105C83.6349 20.7769 84.0262 19.2473 84.8089 17.9216C85.6127 16.5959 86.702 15.5762 88.0769 14.8623C89.4519 14.1281 90.9854 13.761 92.6776 13.761C94.3698 13.761 95.9034 14.1281 97.2783 14.8623C98.6532 15.5762 99.732 16.5959 100.515 17.9216C101.318 19.2473 101.72 20.7769 101.72 22.5105C101.72 24.2441 101.308 25.7737 100.483 27.0994C99.6791 28.4251 98.5792 29.4551 97.1831 30.1893C95.8082 30.9031 94.2641 31.26 92.5507 31.26ZM92.5507 27.5277C93.3545 27.5277 94.1054 27.3442 94.8035 26.9771C95.5226 26.5895 96.0938 26.0185 96.5168 25.2639C96.9399 24.5092 97.1514 23.5915 97.1514 22.5105C97.1514 20.8993 96.7072 19.6654 95.8188 18.8088C94.9515 17.9318 93.8833 17.4933 92.6142 17.4933C91.345 17.4933 90.2768 17.9318 89.4095 18.8088C88.5634 19.6654 88.1404 20.8993 88.1404 22.5105C88.1404 24.1217 88.5529 25.3658 89.3778 26.2428C90.2239 27.0994 91.2816 27.5277 92.5507 27.5277Z" fill="#3090EE"/>
	<path d="M112.784 31.26C111.092 31.26 109.569 30.9031 108.215 30.1893C106.861 29.4551 105.793 28.4251 105.01 27.0994C104.249 25.7737 103.868 24.2441 103.868 22.5105C103.868 20.7769 104.26 19.2473 105.042 17.9216C105.846 16.5959 106.935 15.5762 108.31 14.8623C109.685 14.1281 111.219 13.761 112.911 13.761C114.603 13.761 116.137 14.1281 117.512 14.8623C118.887 15.5762 119.965 16.5959 120.748 17.9216C121.552 19.2473 121.954 20.7769 121.954 22.5105C121.954 24.2441 121.541 25.7737 120.716 27.0994C119.913 28.4251 118.813 29.4551 117.416 30.1893C116.042 30.9031 114.497 31.26 112.784 31.26ZM112.784 27.5277C113.588 27.5277 114.339 27.3442 115.037 26.9771C115.756 26.5895 116.327 26.0185 116.75 25.2639C117.173 24.5092 117.385 23.5915 117.385 22.5105C117.385 20.8993 116.941 19.6654 116.052 18.8088C115.185 17.9318 114.117 17.4933 112.848 17.4933C111.578 17.4933 110.51 17.9318 109.643 18.8088C108.797 19.6654 108.374 20.8993 108.374 22.5105C108.374 24.1217 108.786 25.3658 109.611 26.2428C110.457 27.0994 111.515 27.5277 112.784 27.5277Z" fill="#3090EE"/>
	<path d="M135.619 30.9847L129.654 23.7648V30.9847H125.212V8.34608H129.654V21.2256L135.556 14.0363H141.33L133.589 22.5411L141.394 30.9847H135.619Z" fill="#EAF4FD"/>
	<path d="M160.558 14.0363L149.675 39H144.947L148.754 30.5564L141.711 14.0363H146.692L151.229 25.8757L155.83 14.0363H160.558Z" fill="#EAF4FD"/>
	<path d="M164.919 31.1989C164.116 31.1989 163.449 30.9643 162.92 30.4952C162.413 30.0057 162.159 29.4041 162.159 28.6903C162.159 27.9764 162.413 27.385 162.92 26.9159C163.449 26.4264 164.116 26.1816 164.919 26.1816C165.702 26.1816 166.347 26.4264 166.855 26.9159C167.362 27.385 167.616 27.9764 167.616 28.6903C167.616 29.4041 167.362 30.0057 166.855 30.4952C166.347 30.9643 165.702 31.1989 164.919 31.1989Z" fill="#4A535D"/>
	<path d="M173.447 12.0172C172.664 12.0172 172.009 11.7827 171.48 11.3136C170.972 10.8241 170.718 10.2224 170.718 9.50861C170.718 8.79477 170.972 8.20331 171.48 7.73423C172.009 7.24474 172.664 7 173.447 7C174.23 7 174.875 7.24474 175.382 7.73423C175.911 8.20331 176.176 8.79477 176.176 9.50861C176.176 10.2224 175.911 10.8241 175.382 11.3136C174.875 11.7827 174.23 12.0172 173.447 12.0172ZM175.636 14.0363V30.9847H171.194V14.0363H175.636Z" fill="#EAF4FD"/>
	<path d="M187.83 31.26C186.138 31.26 184.615 30.9031 183.261 30.1893C181.908 29.4551 180.839 28.4251 180.057 27.0994C179.295 25.7737 178.915 24.2441 178.915 22.5105C178.915 20.7769 179.306 19.2473 180.089 17.9216C180.892 16.5959 181.982 15.5762 183.357 14.8623C184.732 14.1281 186.265 13.761 187.957 13.761C189.649 13.761 191.183 14.1281 192.558 14.8623C193.933 15.5762 195.012 16.5959 195.794 17.9216C196.598 19.2473 197 20.7769 197 22.5105C197 24.2441 196.588 25.7737 195.763 27.0994C194.959 28.4251 193.859 29.4551 192.463 30.1893C191.088 30.9031 189.544 31.26 187.83 31.26ZM187.83 27.5277C188.634 27.5277 189.385 27.3442 190.083 26.9771C190.802 26.5895 191.373 26.0185 191.796 25.2639C192.22 24.5092 192.431 23.5915 192.431 22.5105C192.431 20.8993 191.987 19.6654 191.098 18.8088C190.231 17.9318 189.163 17.4933 187.894 17.4933C186.625 17.4933 185.556 17.9318 184.689 18.8088C183.843 19.6654 183.42 20.8993 183.42 22.5105C183.42 24.1217 183.833 25.3658 184.657 26.2428C185.504 27.0994 186.561 27.5277 187.83 27.5277Z" fill="#EAF4FD"/>
</svg>
