<svg width="210" height="60" viewBox="0 0 197 46" fill="none" xmlns="http://www.w3.org/2000/svg">
<style>
	#boo__front,
	#boo__face { animation: boo-idle 2s infinite; }
	#boo__back { animation: boo-idle 2s .1s infinite; }
	#boo__eyes { animation: boo-blink 10s infinite; }

	#b { animation: letter-blink 6s infinite, letter-jump 6s infinite; }
	#o { animation: letter-blink 6s .2s infinite, letter-jump 6s .2s infinite; }
	#o-2 { animation: letter-blink 6s .4s infinite, letter-jump 6s .4s infinite; }

	@keyframes letter-blink {
	 	75% { fill: #2989E1; }
		80% { fill: white; }
		90% { fill: #2989E1; }
	}

	@keyframes letter-jump {
		75% { transform: translate(0, 0); }
		80% { transform: translate(0, -10px); }
		90% { transform: translate(0, 2.5px); }
		100% { transform: translate(0, 0); }
	}

	@keyframes boo-blink {
		98% { opacity: 1; }
		98.01% { opacity: 0; }
		99.99% { opacity: 0; }
		100% { opacity: 1; }
	}

	@keyframes boo-idle {
		0% { transform: translate(0, 0); }
		50% { transform: translate(0, 5px); }
		100% { transform: translate(0, 0); }
	}
	</style>
<g id="Style=Default">
<g id="Boo">
<g id="boo__body">
<path id="boo__back" opacity="0.54" d="M3.42746 20.6751C3.42746 25.4582 5.66188 33.0083 6.7806 36.0493C7.89933 39.0904 8.23041 40.4511 9.19099 40.4511C10.1516 40.4511 10.3117 36.4444 11.7525 36.3533C13.1934 36.2622 13.491 42.1395 14.4742 42.293C16.2264 42.5666 15.2915 39.3614 16.4754 39.7226C18.0783 40.2118 17.7953 45.0953 19.197 45.0953C20.5987 45.0953 19.5261 38.7209 21.2783 38.7209C23.0305 38.7209 23.203 42.293 24.6047 42.293C26.0065 42.293 27.241 34.386 28.6428 33.9857C30.0445 33.5854 30.2117 39.8597 31.6134 36.0493C33.3656 31.2864 34.9666 25.4582 34.9666 20.6751C35.0248 9.18723 27.9247 2.66016 19.197 2.66016C10.4694 2.66016 3.26428 8.87378 3.42746 20.6751Z" fill="#A5AFB8"/>
<path id="boo__front" d="M35.9969 19.1104C35.9969 23.8935 33.4467 31.4436 32.1699 34.4846C30.893 37.5257 30.5151 38.8864 29.4188 38.8864C28.3225 38.8864 28.1397 34.8797 26.4952 34.7886C24.8507 34.6976 24.5111 40.5748 23.3889 40.7283C21.3891 41.0019 22.4561 37.7967 21.1049 38.1579C19.2755 38.6471 19.5985 43.5306 17.9987 43.5306C16.3988 43.5306 17.623 37.1562 15.6232 37.1562C13.6234 37.1562 13.4265 40.7283 11.8267 40.7283C10.2268 40.7283 8.81777 32.8213 7.21793 32.421C5.61808 32.0207 5.42729 38.295 3.82744 34.4846C1.82764 29.7217 0.000405956 23.8935 0.000405956 19.1104C-0.0660591 7.62253 8.03753 1.09546 17.9987 1.09546C27.9598 1.09546 36.1831 7.30908 35.9969 19.1104Z" fill="#EAF4FD"/>
</g>
<g id="boo__face">
<g id="boo__eyes">
<g id="boo__eye">
<path id="boo__eye_2" d="M30.0272 14.2572C30.0272 16.8992 27.8783 18.0367 25.2276 18.0367C22.5769 18.0367 20.4281 16.8992 20.4281 14.2572C20.4281 11.6152 22.5769 9.47339 25.2276 9.47339C27.8783 9.47339 30.0272 11.6152 30.0272 14.2572Z" fill="#050E18"/>
<ellipse id="Ellipse 33" cx="0.472752" cy="0.473135" rx="0.472752" ry="0.473135" transform="matrix(0.608849 0.793286 0.795209 -0.606335 26.1046 11.8271)" fill="#EAF4FD"/>
<ellipse id="Ellipse 34" cx="1.16936" cy="1.17031" rx="1.16936" ry="1.17031" transform="matrix(0.608849 0.793286 0.795209 -0.606335 22.8401 11.6021)" fill="#EAF4FD"/>
</g>
<g id="boo__eye_3">
<path id="boo__eye_4" d="M15.6289 14.2572C15.6289 16.8992 13.4801 18.0367 10.8294 18.0367C8.17867 18.0367 6.02985 16.8992 6.02985 14.2572C6.02985 11.6152 8.17867 9.47339 10.8294 9.47339C13.4801 9.47339 15.6289 11.6152 15.6289 14.2572Z" fill="#050E18"/>
<ellipse id="Ellipse 33_2" cx="0.472752" cy="0.473135" rx="0.472752" ry="0.473135" transform="matrix(0.608849 0.793286 0.795209 -0.606335 11.6704 11.9417)" fill="#EAF4FD"/>
<ellipse id="Ellipse 34_2" cx="1.16936" cy="1.17031" rx="1.16936" ry="1.17031" transform="matrix(0.608849 0.793286 0.795209 -0.606335 8.40442 11.7166)" fill="#EAF4FD"/>
</g>
</g>
<path id="boo__mouth" d="M19.9168 18.3645C20.7403 18.5533 19.54 20.4332 18.0895 20.4007C16.6391 20.3683 15.3847 18.5174 16.2623 18.3645C17.1399 18.2116 17.0804 19.3384 18.0895 19.3384C19.0987 19.3384 19.0932 18.1756 19.9168 18.3645Z" fill="#050E18"/>
</g>
</g>
<g id="sbooky.io">
<path d="M52.6784 31.26C51.24 31.26 49.9497 31.0153 48.8075 30.5258C47.6652 30.0159 46.7557 29.3327 46.0788 28.4761C45.4231 27.6195 45.0635 26.6711 45 25.631H49.4738C49.5584 26.2836 49.8863 26.8241 50.4574 27.2524C51.0496 27.6807 51.7794 27.8948 52.6467 27.8948C53.4928 27.8948 54.1485 27.7317 54.6139 27.4054C55.1004 27.079 55.3436 26.6609 55.3436 26.1511C55.3436 25.6004 55.0475 25.1925 54.4552 24.9273C53.8841 24.6418 52.964 24.3359 51.6948 24.0096C50.3833 23.7036 49.3046 23.3875 48.4584 23.0612C47.6335 22.7349 46.9143 22.2352 46.3009 21.5621C45.7086 20.8891 45.4125 19.9815 45.4125 18.8394C45.4125 17.9012 45.6875 17.0446 46.2374 16.2696C46.8085 15.4946 47.6123 14.8827 48.6488 14.434C49.7065 13.9853 50.9439 13.761 52.3611 13.761C54.4552 13.761 56.1263 14.2709 57.3743 15.2906C58.6223 16.29 59.3097 17.6463 59.4366 19.3595H55.185C55.1215 18.6864 54.8254 18.1562 54.2966 17.7686C53.7889 17.3607 53.1014 17.1568 52.2342 17.1568C51.4304 17.1568 50.8064 17.2996 50.3622 17.5851C49.9391 17.8706 49.7276 18.2683 49.7276 18.7782C49.7276 19.3493 50.0237 19.7878 50.616 20.0937C51.2083 20.3792 52.1284 20.675 53.3764 20.9809C54.6456 21.2868 55.6926 21.6029 56.5176 21.9293C57.3425 22.2556 58.0512 22.7655 58.6434 23.4589C59.2569 24.1319 59.5741 25.0293 59.5953 26.1511C59.5953 27.13 59.3097 28.007 58.7386 28.782C58.1886 29.557 57.3848 30.1689 56.3272 30.6176C55.2907 31.0459 54.0745 31.26 52.6784 31.26Z" fill="#EAF4FD"/>
<path id="b" d="M67.6837 16.5143C68.2548 15.6985 69.0374 15.0357 70.0316 14.5258C71.0469 14.0159 72.1998 13.761 73.4901 13.761C74.9919 13.761 76.3457 14.1179 77.5514 14.8317C78.7782 15.5456 79.7407 16.5653 80.4387 17.891C81.1579 19.1963 81.5175 20.7157 81.5175 22.4493C81.5175 24.1829 81.1579 25.7228 80.4387 27.0688C79.7407 28.3945 78.7782 29.4245 77.5514 30.1587C76.3457 30.8929 74.9919 31.26 73.4901 31.26C72.1786 31.26 71.0258 31.0153 70.0316 30.5258C69.0586 30.0159 68.276 29.3633 67.6837 28.5679V30.9847H63.2416V8.34608H67.6837V16.5143ZM76.9802 22.4493C76.9802 21.4296 76.7581 20.5526 76.3139 19.8184C75.8909 19.0637 75.3198 18.4927 74.6006 18.1052C73.9025 17.7177 73.1411 17.5239 72.3161 17.5239C71.5123 17.5239 70.7508 17.7279 70.0316 18.1358C69.3336 18.5233 68.7625 19.0943 68.3183 19.8489C67.8952 20.6036 67.6837 21.4908 67.6837 22.5105C67.6837 23.5303 67.8952 24.4175 68.3183 25.1721C68.7625 25.9267 69.3336 26.508 70.0316 26.9159C70.7508 27.3034 71.5123 27.4971 72.3161 27.4971C73.1411 27.4971 73.9025 27.2932 74.6006 26.8853C75.3198 26.4774 75.8909 25.8961 76.3139 25.1415C76.7581 24.3869 76.9802 23.4895 76.9802 22.4493Z" fill="#3090EE"/>
<path id="o" d="M92.5507 31.26C90.8585 31.26 89.3355 30.9031 87.9818 30.1893C86.628 29.4551 85.5598 28.4251 84.7771 27.0994C84.0156 25.7737 83.6349 24.2441 83.6349 22.5105C83.6349 20.7769 84.0262 19.2473 84.8089 17.9216C85.6127 16.5959 86.702 15.5762 88.0769 14.8623C89.4519 14.1281 90.9854 13.761 92.6776 13.761C94.3698 13.761 95.9034 14.1281 97.2783 14.8623C98.6532 15.5762 99.732 16.5959 100.515 17.9216C101.318 19.2473 101.72 20.7769 101.72 22.5105C101.72 24.2441 101.308 25.7737 100.483 27.0994C99.6791 28.4251 98.5792 29.4551 97.1831 30.1893C95.8082 30.9031 94.2641 31.26 92.5507 31.26ZM92.5507 27.5277C93.3545 27.5277 94.1054 27.3442 94.8035 26.9771C95.5226 26.5895 96.0938 26.0185 96.5168 25.2639C96.9399 24.5092 97.1514 23.5915 97.1514 22.5105C97.1514 20.8993 96.7072 19.6654 95.8188 18.8088C94.9515 17.9318 93.8833 17.4933 92.6142 17.4933C91.345 17.4933 90.2768 17.9318 89.4095 18.8088C88.5634 19.6654 88.1404 20.8993 88.1404 22.5105C88.1404 24.1217 88.5529 25.3658 89.3778 26.2428C90.2239 27.0994 91.2816 27.5277 92.5507 27.5277Z" fill="#3090EE"/>
<path id="o-2" d="M112.784 31.26C111.092 31.26 109.569 30.9031 108.215 30.1893C106.861 29.4551 105.793 28.4251 105.01 27.0994C104.249 25.7737 103.868 24.2441 103.868 22.5105C103.868 20.7769 104.26 19.2473 105.042 17.9216C105.846 16.5959 106.935 15.5762 108.31 14.8623C109.685 14.1281 111.219 13.761 112.911 13.761C114.603 13.761 116.137 14.1281 117.512 14.8623C118.887 15.5762 119.965 16.5959 120.748 17.9216C121.552 19.2473 121.954 20.7769 121.954 22.5105C121.954 24.2441 121.541 25.7737 120.716 27.0994C119.913 28.4251 118.813 29.4551 117.416 30.1893C116.042 30.9031 114.497 31.26 112.784 31.26ZM112.784 27.5277C113.588 27.5277 114.339 27.3442 115.037 26.9771C115.756 26.5895 116.327 26.0185 116.75 25.2639C117.173 24.5092 117.385 23.5915 117.385 22.5105C117.385 20.8993 116.941 19.6654 116.052 18.8088C115.185 17.9318 114.117 17.4933 112.848 17.4933C111.578 17.4933 110.51 17.9318 109.643 18.8088C108.797 19.6654 108.374 20.8993 108.374 22.5105C108.374 24.1217 108.786 25.3658 109.611 26.2428C110.457 27.0994 111.515 27.5277 112.784 27.5277Z" fill="#3090EE"/>
<path d="M135.619 30.9847L129.654 23.7648V30.9847H125.212V8.34608H129.654V21.2256L135.556 14.0363H141.33L133.589 22.5411L141.394 30.9847H135.619Z" fill="#EAF4FD"/>
<path d="M160.558 14.0363L149.675 39H144.947L148.754 30.5564L141.711 14.0363H146.692L151.229 25.8757L155.83 14.0363H160.558Z" fill="#EAF4FD"/>
<path d="M164.919 31.1989C164.116 31.1989 163.449 30.9643 162.92 30.4952C162.413 30.0057 162.159 29.4041 162.159 28.6903C162.159 27.9764 162.413 27.385 162.92 26.9159C163.449 26.4264 164.116 26.1816 164.919 26.1816C165.702 26.1816 166.347 26.4264 166.855 26.9159C167.362 27.385 167.616 27.9764 167.616 28.6903C167.616 29.4041 167.362 30.0057 166.855 30.4952C166.347 30.9643 165.702 31.1989 164.919 31.1989Z" fill="#4A535D"/>
<path d="M173.447 12.0172C172.664 12.0172 172.009 11.7827 171.48 11.3136C170.972 10.8241 170.718 10.2224 170.718 9.50861C170.718 8.79477 170.972 8.20331 171.48 7.73423C172.009 7.24474 172.664 7 173.447 7C174.23 7 174.875 7.24474 175.382 7.73423C175.911 8.20331 176.176 8.79477 176.176 9.50861C176.176 10.2224 175.911 10.8241 175.382 11.3136C174.875 11.7827 174.23 12.0172 173.447 12.0172ZM175.636 14.0363V30.9847H171.194V14.0363H175.636Z" fill="#EAF4FD"/>
<path d="M187.83 31.26C186.138 31.26 184.615 30.9031 183.261 30.1893C181.908 29.4551 180.839 28.4251 180.057 27.0994C179.295 25.7737 178.915 24.2441 178.915 22.5105C178.915 20.7769 179.306 19.2473 180.089 17.9216C180.892 16.5959 181.982 15.5762 183.357 14.8623C184.732 14.1281 186.265 13.761 187.957 13.761C189.649 13.761 191.183 14.1281 192.558 14.8623C193.933 15.5762 195.012 16.5959 195.794 17.9216C196.598 19.2473 197 20.7769 197 22.5105C197 24.2441 196.588 25.7737 195.763 27.0994C194.959 28.4251 193.859 29.4551 192.463 30.1893C191.088 30.9031 189.544 31.26 187.83 31.26ZM187.83 27.5277C188.634 27.5277 189.385 27.3442 190.083 26.9771C190.802 26.5895 191.373 26.0185 191.796 25.2639C192.22 24.5092 192.431 23.5915 192.431 22.5105C192.431 20.8993 191.987 19.6654 191.098 18.8088C190.231 17.9318 189.163 17.4933 187.894 17.4933C186.625 17.4933 185.556 17.9318 184.689 18.8088C183.843 19.6654 183.42 20.8993 183.42 22.5105C183.42 24.1217 183.833 25.3658 184.657 26.2428C185.504 27.0994 186.561 27.5277 187.83 27.5277Z" fill="#EAF4FD"/>
</g>
</g>
</svg>
