<svg width="30" height="36" viewBox="0 0 30 36" fill="none" xmlns="http://www.w3.org/2000/svg">
<path opacity="0.54" d="M2.85774 16.0188C2.85774 19.9323 4.71976 26.1096 5.65203 28.5977C6.5843 31.0858 6.8602 32.1992 7.66069 32.1992C8.46117 32.1992 8.59459 28.9209 9.79532 28.8464C10.996 28.7719 11.244 33.5806 12.0634 33.7062C13.5235 33.93 12.7445 31.3076 13.731 31.6031C15.0668 32.0033 14.8309 35.999 15.999 35.999C17.1672 35.999 16.2733 30.7836 17.7335 30.7836C19.1936 30.7836 19.3374 33.7062 20.5055 33.7062C21.6736 33.7062 22.7024 27.2368 23.8705 26.9093C25.0386 26.5817 25.1779 31.7153 26.346 28.5977C27.8062 24.7008 29.1403 19.9323 29.1403 16.0188C29.1889 6.61963 23.2721 1.2793 15.999 1.2793C8.72599 1.2793 2.72176 6.36317 2.85774 16.0188Z" fill="#A5AFB8"/>
<path d="M29.9974 14.7395C29.9974 18.653 27.8722 24.8303 26.8082 27.3184C25.7442 29.8065 25.4293 30.9199 24.5157 30.9199C23.6021 30.9199 23.4498 27.6416 22.0794 27.5671C20.7089 27.4926 20.4259 32.3013 19.4908 32.4269C17.8243 32.6507 18.7134 30.0283 17.5874 30.3238C16.0629 30.724 16.3321 34.7197 14.9989 34.7197C13.6657 34.7197 14.6858 29.5043 13.0193 29.5043C11.3528 29.5043 11.1888 32.4269 9.85555 32.4269C8.52235 32.4269 7.34814 25.9575 6.01494 25.63C4.68174 25.3024 4.52274 30.436 3.18954 27.3184C1.52303 23.4215 0.000338296 18.653 0.000338296 14.7395C-0.0550492 5.34033 6.69794 3.90342e-07 14.9989 0C23.2998 -3.90342e-07 30.1526 5.08387 29.9974 14.7395Z" fill="#EAF4FD"/>
<path d="M25.0227 10.7695C25.0227 12.9312 23.232 13.8618 21.023 13.8618C18.8141 13.8618 17.0234 12.9312 17.0234 10.7695C17.0234 8.60784 18.8141 6.85547 21.023 6.85547C23.232 6.85547 25.0227 8.60784 25.0227 10.7695Z" fill="#050E18"/>
<ellipse cx="0.389468" cy="0.39166" rx="0.389468" ry="0.39166" transform="matrix(0.615872 0.787846 0.800529 -0.599293 21.7539 8.78125)" fill="#EAF4FD"/>
<ellipse cx="0.963358" cy="0.968779" rx="0.963358" ry="0.968779" transform="matrix(0.615871 0.787847 0.800529 -0.599294 19.0352 8.59766)" fill="#EAF4FD"/>
<path d="M13.0227 10.7695C13.0227 12.9312 11.232 13.8618 9.02305 13.8618C6.81412 13.8618 5.02344 12.9312 5.02344 10.7695C5.02344 8.60784 6.81412 6.85547 9.02305 6.85547C11.232 6.85547 13.0227 8.60784 13.0227 10.7695Z" fill="#050E18"/>
<ellipse cx="0.389468" cy="0.391659" rx="0.389468" ry="0.391659" transform="matrix(0.615871 0.787847 0.800529 -0.599294 9.72266 8.875)" fill="#EAF4FD"/>
<ellipse cx="0.963358" cy="0.968779" rx="0.963358" ry="0.968779" transform="matrix(0.615871 0.787847 0.800529 -0.599294 7.00391 8.69141)" fill="#EAF4FD"/>
<path d="M16.5963 14.1303C17.2826 14.2848 16.2823 15.8228 15.0736 15.7963C13.8649 15.7697 12.8196 14.2553 13.5509 14.1303C14.2822 14.0052 14.2326 14.9271 15.0736 14.9271C15.9145 14.9271 15.91 13.9757 16.5963 14.1303Z" fill="#050E18"/>
</svg>
