<svg width="500" height="500" viewBox="0 0 500 500" fill="none" xmlns="http://www.w3.org/2000/svg">
<rect width="500" height="500" rx="250" fill="#050E18"/>
<path opacity="0.54" d="M129.373 249.867C129.373 289.654 147.869 352.457 157.129 377.753C166.39 403.049 169.13 414.368 177.082 414.368C185.033 414.368 186.359 381.039 198.286 380.281C210.213 379.524 212.676 428.412 220.815 429.689C235.319 431.964 227.581 405.303 237.381 408.308C250.649 412.377 248.306 452.999 259.909 452.999C271.513 452.999 262.634 399.976 277.138 399.976C291.642 399.976 293.07 429.689 304.673 429.689C316.277 429.689 326.496 363.917 338.099 360.587C349.703 357.257 351.086 409.448 362.69 377.753C377.194 338.134 390.446 289.654 390.446 249.867C390.928 154.309 332.155 100.016 259.909 100.016C187.664 100.016 128.022 151.702 129.373 249.867Z" fill="#EAF4FD"/>
<path d="M398.974 236.851C398.974 276.639 377.864 339.441 367.295 364.737C356.726 390.033 353.598 401.352 344.522 401.352C335.447 401.352 333.935 368.023 320.322 367.266C306.709 366.508 303.898 415.396 294.608 416.673C278.054 418.949 286.886 392.287 275.702 395.292C260.558 399.361 263.232 439.983 249.989 439.983C236.746 439.983 246.879 386.96 230.325 386.96C213.771 386.96 212.142 416.673 198.898 416.673C185.655 416.673 173.992 350.901 160.748 347.571C147.505 344.241 145.926 396.432 132.683 364.737C116.129 325.118 101.003 276.639 101.003 236.851C100.453 141.293 167.533 87 249.989 87C332.445 87 400.516 138.686 398.974 236.851Z" fill="#EAF4FD"/>
<path d="M349.559 196.482C349.559 218.459 331.771 227.92 309.829 227.92C287.887 227.92 270.1 218.459 270.1 196.482C270.1 174.505 287.887 156.689 309.829 156.689C331.771 156.689 349.559 174.505 349.559 196.482Z" fill="#050E18"/>
<ellipse cx="3.92537" cy="3.92355" rx="3.92537" ry="3.92355" transform="matrix(0.606983 0.794715 0.793783 -0.608201 317.088 176.269)" fill="#EAF4FD"/>
<ellipse cx="9.7095" cy="9.705" rx="9.7095" ry="9.705" transform="matrix(0.606982 0.794715 0.793782 -0.608202 290.066 174.396)" fill="#EAF4FD"/>
<path d="M230.373 196.481C230.373 218.458 212.585 227.919 190.644 227.919C168.702 227.919 150.914 218.458 150.914 196.481C150.914 174.504 168.702 156.688 190.644 156.688C212.585 156.688 230.373 174.504 230.373 196.481Z" fill="#050E18"/>
<ellipse cx="3.92537" cy="3.92355" rx="3.92537" ry="3.92355" transform="matrix(0.606982 0.794715 0.793782 -0.608202 197.605 177.22)" fill="#EAF4FD"/>
<ellipse cx="9.7095" cy="9.705" rx="9.7095" ry="9.705" transform="matrix(0.606982 0.794715 0.793782 -0.608202 170.57 175.349)" fill="#EAF4FD"/>
<path d="M265.866 230.647C272.684 232.218 262.747 247.855 250.741 247.585C238.735 247.315 228.351 231.919 235.616 230.647C242.88 229.375 242.388 238.748 250.741 238.748C259.095 238.748 259.049 229.076 265.866 230.647Z" fill="#050E18"/>
</svg>
